<svg width="20" height="20" viewBox="0 0 20 20" fill="none" xmlns="http://www.w3.org/2000/svg">
<path d="M14.5002 1H5.50024C3.01496 1 1.00024 3.01472 1.00024 5.5V14.5C1.00024 16.9853 3.01496 19 5.50024 19H14.5002C16.9855 19 19.0002 16.9853 19.0002 14.5V5.5C19.0002 3.01472 16.9855 1 14.5002 1Z" stroke="white" stroke-width="2" stroke-linecap="round" stroke-linejoin="round"/>
<path d="M13.5991 9.43303C13.7101 10.182 13.5822 10.947 13.2334 11.6191C12.8847 12.2913 12.3329 12.8363 11.6565 13.1767C10.9801 13.5172 10.2137 13.6357 9.46606 13.5154C8.71847 13.3951 8.02784 13.0421 7.49241 12.5067C6.95698 11.9712 6.60401 11.2806 6.48371 10.533C6.36342 9.78542 6.48191 9.01893 6.82235 8.34256C7.16278 7.6662 7.70782 7.11439 8.37994 6.76564C9.05206 6.4169 9.81703 6.28896 10.5661 6.40003C11.3301 6.51332 12.0374 6.86934 12.5836 7.4155C13.1297 7.96166 13.4858 8.669 13.5991 9.43303Z" stroke="white" stroke-width="2" stroke-linecap="round" stroke-linejoin="round"/>
<path d="M14.9504 5.04993H14.9614" stroke="white" stroke-width="1.6" stroke-linecap="round" stroke-linejoin="round"/>
</svg>
