<svg width="20" height="21" viewBox="0 0 20 21" fill="none" xmlns="http://www.w3.org/2000/svg">
<path d="M18.9994 14.4774V17.1873C19.0005 17.4389 18.9488 17.6879 18.8479 17.9184C18.7469 18.1489 18.5988 18.3558 18.4131 18.5259C18.2273 18.696 18.008 18.8254 17.7693 18.906C17.5305 18.9866 17.2775 19.0166 17.0265 18.9939C14.2415 18.6919 11.5664 17.7421 9.21601 16.2208C7.02929 14.8339 5.17534 12.9835 3.7858 10.801C2.25627 8.44441 1.30442 5.7614 1.00735 2.96929C0.98473 2.7195 1.01447 2.46774 1.09468 2.23005C1.17489 1.99236 1.30381 1.77394 1.47323 1.5887C1.64265 1.40346 1.84885 1.25546 2.07872 1.15412C2.30858 1.05278 2.55707 1.00032 2.80837 1.00009H5.52347C5.96269 0.995773 6.3885 1.15101 6.72152 1.43687C7.05455 1.72272 7.27207 2.11969 7.33354 2.55377C7.44814 3.42101 7.66067 4.27252 7.96707 5.09206C8.08883 5.41538 8.11519 5.76675 8.043 6.10456C7.97082 6.44236 7.80313 6.75244 7.5598 6.99804L6.41041 8.14523C7.69877 10.4067 9.57482 12.2792 11.8406 13.5651L12.99 12.4179C13.2361 12.175 13.5467 12.0076 13.8852 11.9356C14.2237 11.8635 14.5757 11.8898 14.8996 12.0114C15.7207 12.3172 16.5739 12.5293 17.4428 12.6437C17.8824 12.7056 18.2839 12.9266 18.5709 13.2647C18.858 13.6028 19.0105 14.0344 18.9994 14.4774Z" stroke="white" stroke-width="2" stroke-linecap="round" stroke-linejoin="round"/>
</svg>
