<svg width="20" height="18" viewBox="0 0 20 18" fill="none" xmlns="http://www.w3.org/2000/svg">
<path d="M19.0002 1.50841C18.2167 2.07307 17.3492 2.50495 16.4312 2.78741C15.9384 2.20852 15.2835 1.79822 14.5551 1.612C13.8267 1.42578 13.0598 1.47262 12.3583 1.74619C11.6568 2.01977 11.0544 2.50686 10.6327 3.14161C10.2109 3.77636 9.99018 4.52813 10.0002 5.29525V6.1312C8.5624 6.1693 7.13765 5.84348 5.85289 5.18277C4.56812 4.52207 3.46323 3.54698 2.63661 2.34435C2.63661 2.34435 -0.636119 9.86789 6.72752 13.2117C5.04249 14.3803 3.03519 14.9663 1.00024 14.8836C8.36388 19.0633 17.3639 14.8836 17.3639 5.27018C17.3631 5.03733 17.3412 4.80505 17.2984 4.57634C18.1335 3.73495 18.7227 2.67264 19.0002 1.50841V1.50841Z" stroke="white" stroke-width="2" stroke-linecap="round" stroke-linejoin="round"/>
</svg>
